
        <svg xmlns="http://www.w3.org/2000/svg" xmlns:xlink="http://www.w3.org/1999/xlink" version="1.1" width="3162.6016260162605" height="1180.866366306349" viewBox="0 0 3162.6016260162605 1180.866366306349">
			
			<g transform="scale(8.130081300813009) translate(10, 10)">
				<defs id="SvgjsDefs1443"><linearGradient id="SvgjsLinearGradient1450"><stop id="SvgjsStop1451" stop-color="#8f5e25" offset="0"/><stop id="SvgjsStop1452" stop-color="#fbf4a1" offset="0.5"/><stop id="SvgjsStop1453" stop-color="#8f5e25" offset="1"/></linearGradient><linearGradient id="SvgjsLinearGradient1454"><stop id="SvgjsStop1455" stop-color="#8f5e25" offset="0"/><stop id="SvgjsStop1456" stop-color="#fbf4a1" offset="0.5"/><stop id="SvgjsStop1457" stop-color="#8f5e25" offset="1"/></linearGradient><linearGradient id="SvgjsLinearGradient1458"><stop id="SvgjsStop1459" stop-color="#8f5e25" offset="0"/><stop id="SvgjsStop1460" stop-color="#fbf4a1" offset="0.5"/><stop id="SvgjsStop1461" stop-color="#8f5e25" offset="1"/></linearGradient></defs><g id="SvgjsG1444" featureKey="symbolFeature-0" transform="matrix(0.25709215963063087,0,0,0.25709215963063087,-3.2858949275453284,-3.2308772701124715)" fill="#000"><g xmlns="http://www.w3.org/2000/svg"><path d="M494.985,12.567H16.781c-2.209,0-4,1.791-4,4v360.896c0,2.209,1.791,4,4,4h121.448c0.055,0,0.106-0.014,0.161-0.017   c2.283,4.259,4.798,8.436,7.542,12.504l-27.886,38.075c-1.162,1.586-0.999,3.78,0.384,5.178l18.046,18.229   c1.405,1.417,3.638,1.585,5.236,0.391l37.599-28.085c15.371,10.949,33.692,18.594,53.327,22.249l6.688,46.317   c0.284,1.969,1.971,3.429,3.959,3.429h25.723c1.987,0,3.674-1.459,3.959-3.426l6.716-46.32   c19.462-3.622,37.185-11.094,52.767-22.246l37.574,28.081c1.599,1.195,3.832,1.028,5.236-0.39l18.055-18.229   c1.384-1.396,1.547-3.591,0.386-5.177l-27.829-38.027c2.569-3.67,4.949-7.506,7.143-11.476l122.008-1.061   c2.195-0.02,3.965-1.805,3.965-4V16.567C498.985,14.358,497.194,12.567,494.985,12.567z M490.985,20.567v69.415H205.076   l-34.552-22.591c-0.651-0.425-1.412-0.652-2.189-0.652H20.781V20.567H490.985z M357.702,396.384l27.526,37.614l-13.204,13.332   l-37.159-27.771c-1.422-1.063-3.377-1.061-4.797,0.006c-15.876,11.926-34.24,19.677-54.581,23.036   c-1.72,0.283-3.058,1.647-3.308,3.372l-6.635,45.759h-18.797l-6.607-45.756c-0.249-1.726-1.587-3.091-3.307-3.375   c-20.513-3.388-39.583-11.354-55.147-23.037c-1.42-1.066-3.374-1.068-4.795-0.006l-37.179,27.771l-13.197-13.331l27.549-37.614   c1.014-1.384,1.032-3.261,0.045-4.664c-11.957-17.002-19.677-36.07-22.326-55.145c-0.243-1.746-1.599-3.128-3.341-3.401   l-45.846-7.206v-5.279h94.437c0.994,19.502,9.236,37.983,23.471,52.421c14.787,14.925,34.549,23.144,55.652,23.143   c0.006,0,0.015,0,0.021,0c21.095-0.006,40.845-8.225,55.614-23.147c13.93-14.101,21.992-32.585,22.95-52.416h94.97v5.278   l-45.864,7.207c-1.704,0.268-3.045,1.598-3.325,3.3c-3.367,20.398-11.256,39.479-22.813,55.175   C356.673,393.057,356.67,394.974,357.702,396.384z M326.722,320.689c-0.949,17.709-8.182,34.2-20.619,46.792   c-13.253,13.39-30.983,20.767-49.927,20.771c-0.007,0-0.012,0-0.019,0c-18.951,0-36.697-7.377-49.963-20.767   c-12.738-12.92-20.15-29.408-21.14-46.797H326.722z M377.101,374.487c4.951-10.597,8.612-22,10.813-33.854l46.419-7.294   c1.945-0.306,3.379-1.981,3.379-3.951v-8.701h31.028c2.209,0,4-1.791,4-4s-1.791-4-4-4H43.028c-2.209,0-4,1.791-4,4s1.791,4,4,4   h31.568v8.701c0,1.97,1.434,3.646,3.379,3.951l46.331,7.283c1.827,11.114,5.26,22.178,10.132,32.84H20.781V74.739h146.363   l34.552,22.591c0.651,0.425,1.412,0.652,2.189,0.652h287.101v275.515L377.101,374.487z"/><path d="M450.129,69.751c8.237,0,14.938-6.753,14.938-15.054c0-8.286-6.701-15.027-14.938-15.027   c-8.243,0-14.949,6.741-14.949,15.027C435.18,62.998,441.886,69.751,450.129,69.751z M450.129,47.67   c3.826,0,6.938,3.152,6.938,7.027c0,3.89-3.112,7.054-6.938,7.054c-3.832,0-6.949-3.164-6.949-7.054   C443.18,50.822,446.297,47.67,450.129,47.67z"/><path d="M411.819,69.751c8.688,0,15.495-6.612,15.495-15.054c0-8.427-6.807-15.027-15.495-15.027   c-8.237,0-14.939,6.741-14.939,15.027C396.88,62.998,403.582,69.751,411.819,69.751z M411.819,47.67   c4.203,0,7.495,3.087,7.495,7.027c0,4.021-3.223,7.054-7.495,7.054c-3.826,0-6.939-3.164-6.939-7.054   C404.88,50.888,408.058,47.67,411.819,47.67z"/><path d="M365.853,186.941h106.163c2.209,0,4-1.791,4-4v-34.276c0-2.209-1.791-4-4-4H365.853c-2.209,0-4,1.791-4,4v34.276   C361.853,185.15,363.644,186.941,365.853,186.941z M369.853,152.665h98.163v26.276h-98.163V152.665z"/><path d="M365.853,247.721h106.163c2.209,0,4-1.791,4-4V208.91c0-2.209-1.791-4-4-4H365.853c-2.209,0-4,1.791-4,4v34.811   C361.853,245.93,363.644,247.721,365.853,247.721z M369.853,212.91h98.163v26.811h-98.163V212.91z"/><path d="M223.598,135.255H64.897c-2.209,0-4,1.791-4,4s1.791,4,4,4h158.701c2.209,0,4-1.791,4-4S225.807,135.255,223.598,135.255z"/><path d="M223.598,166.775H64.897c-2.209,0-4,1.791-4,4s1.791,4,4,4h158.701c2.209,0,4-1.791,4-4S225.807,166.775,223.598,166.775z"/><path d="M156.48,201.708c0-2.209-1.791-4-4-4H64.897c-2.209,0-4,1.791-4,4s1.791,4,4,4h87.583   C154.689,205.708,156.48,203.917,156.48,201.708z"/><path d="M223.598,229.229h-51.974c-2.209,0-4,1.791-4,4s1.791,4,4,4h51.974c2.209,0,4-1.791,4-4S225.807,229.229,223.598,229.229z"/><path d="M223.598,260.133H64.897c-2.209,0-4,1.791-4,4s1.791,4,4,4h158.701c2.209,0,4-1.791,4-4S225.807,260.133,223.598,260.133z"/><path d="M92.817,229.229c-2.209,0-4,1.791-4,4s1.791,4,4,4h51.974c2.209,0,4-1.791,4-4s-1.791-4-4-4H92.817z"/><path d="M192.419,205.708c2.209,0,4-1.791,4-4s-1.791-4-4-4h-27.914c-2.209,0-4,1.791-4,4s1.791,4,4,4H192.419z"/><path d="M479.135,265.686H358.198c-2.209,0-4,1.791-4,4s1.791,4,4,4h120.937c2.209,0,4-1.791,4-4S481.344,265.686,479.135,265.686z   "/></g></g><g id="SvgjsG1445" featureKey="nameFeature-0" transform="matrix(2.0564592333720486,0,0,2.0564592333720486,142.8870854556406,-5.629088996912158)" fill="#000"><path d="M2 40 l0 -32 l3.6 0 l4.2 20 l0.4 0 l4.2 -20 l3.6 0 l0 32 l-4 0 l0 -16 l-2.84 16 l-2.4 0 l-2.76 -16 l0 16 l-4 0 z M24.5 40 l0 -16.8 c0 -11.16 0 -15.56 6 -15.56 s6 4.4 6 15.56 l0 16.8 l-4 0 l0 -9.2 l-4 0 l0 9.2 l-4 0 z M28.5 27.6 l4 0 l0 -4.4 c0 -10.4 0 -12.36 -2 -12.36 s-2 1.96 -2 12.36 l0 4.4 z M43 40 l0 -32 l6.48 0 c4.12 0 5.52 2.52 5.52 7.36 c0 4.36 -0.52 6.84 -1.76 8.04 l0 0.24 c1.04 0.36 1.36 2.24 1.76 6.92 l0.8 9.44 l-4 0 l-0.52 -9.44 c-0.28 -4.76 -1 -5.76 -2.2 -5.76 l-2.08 0 l0 15.2 l-4 0 z M47 21.6 l2.48 0 c1.4 0 1.8 -1.4 1.8 -6.24 c0 -3.16 -0.6 -4.16 -1.8 -4.16 l-2.48 0 l0 10.4 z M60.7 30.240000000000002 l4.04 0 c0.08 5.16 0.48 6.16 1.92 6.16 c1.96 0 1.96 -1.64 1.96 -6 c0 -6.4 -7.92 -4.68 -7.92 -13.2 c0 -5 0 -9.6 6 -9.6 c4.44 0 5.64 2.52 5.92 8.56 l-4 0 c-0.16 -4.36 -0.64 -5.36 -1.92 -5.36 c-1.96 0 -1.96 2.16 -1.96 6.4 c0 6.2 7.96 4 7.96 13.2 c0 5.6 0 10 -6.04 10 c-4.64 0 -5.72 -2.76 -5.96 -10.16 z M78.4 40 l0 -32 l4 0 l0 13.6 l4 0 l0 -13.6 l4 0 l0 32 l-4 0 l0 -15.2 l-4 0 l0 15.2 l-4 0 z M96.5 23.16 c0 -11.16 0.24 -15.56 6.24 -15.56 s6.24 4.4 6.24 15.56 c0 12.8 -0.24 17.24 -6.24 17.24 s-6.24 -4.44 -6.24 -17.24 z M100.5 23.16 c0 11.56 0 13.24 2.24 13.24 s2.24 -1.68 2.24 -13.24 c0 -10.4 0 -12.36 -2.24 -12.36 s-2.24 1.96 -2.24 12.36 z"/></g><g id="SvgjsG1446" featureKey="sloganFeature-0" transform="matrix(1.5693295336054203,0,0,1.5693295336054203,141.79248064591098,85.66944184494194)" fill="#000"><path d="M6.06 16.96 l2.4 -6.36 l-0.6 -2.34 c-0.26 -0.96 1.08 -1.2 1.3 -0.36 l2.36 8.68 l2.54 -8.68 c0.26 -0.9 1.58 -0.52 1.32 0.34 l-3.1 10.54 c-0.12 0.38 -0.46 0.62 -0.78 0.62 c-0.36 0 -0.68 -0.22 -0.8 -0.62 l-1.64 -6.02 c-0.76 2 -1.56 4.04 -2.3 6.04 c-0.14 0.36 -0.46 0.6 -0.76 0.6 s-0.6 -0.2 -0.74 -0.64 l-3.18 -10.52 c-0.26 -0.86 0.96 -1.14 1.22 -0.38 z M19.98 18.7 l0 -10.64 c0 -0.46 0.36 -0.7 0.7 -0.7 l4.6 0 c0.44 0 0.66 0.32 0.66 0.66 s-0.22 0.68 -0.66 0.68 l-3.96 0 l0 3.88 l3.14 0 c0.46 0 0.68 0.32 0.68 0.66 s-0.24 0.7 -0.68 0.7 l-3.14 0 l0 4.14 l3.96 0 c0.42 0 0.64 0.34 0.64 0.66 c0 0.34 -0.22 0.66 -0.64 0.66 l-4.6 0 c-0.34 0 -0.7 -0.12 -0.7 -0.7 z M30.5 18.72 l0 -10.72 c0 -0.32 0.16 -0.64 0.6 -0.64 l2.62 0 c1.98 0 3.06 0.72 3.06 2.72 c0 0.8 -0.1 1.58 -0.6 2.12 c1.14 0.8 1.34 2.18 1.34 3.58 c0 2.46 -1.34 3.62 -3.64 3.62 l-2.68 0 c-0.34 0 -0.7 -0.12 -0.7 -0.68 z M31.84 18.08 l1.74 0 c1.66 0 2.58 -0.68 2.58 -2.3 c0 -1.66 -0.42 -2.78 -2.04 -2.78 l-2.28 0 l0 5.08 z M35.46 10.08 c0 -1.2 -0.84 -1.38 -1.74 -1.38 l-1.88 0 l0 2.96 l1.84 0 c1.26 0 1.78 -0.36 1.78 -1.58 z M49.540000000000006 18.78 l0 -10.76 c0 -0.54 0.38 -0.66 0.66 -0.66 l3.2 0 c2.64 0 3.94 1.26 3.94 3.74 l0 5.12 c0 1.56 -1.22 3.2 -3.88 3.2 l-3.26 0 c-0.28 0 -0.66 -0.16 -0.66 -0.64 z M56.02 16.22 l0 -5.12 c0 -1.64 -0.88 -2.4 -2.62 -2.4 l-2.54 0 l0 9.42 l2.6 0 c1.22 0 2.56 -0.66 2.56 -1.9 z M62.10000000000001 18.7 l0 -10.64 c0 -0.46 0.36 -0.7 0.7 -0.7 l4.6 0 c0.44 0 0.66 0.32 0.66 0.66 s-0.22 0.68 -0.66 0.68 l-3.96 0 l0 3.88 l3.14 0 c0.46 0 0.68 0.32 0.68 0.66 s-0.24 0.7 -0.68 0.7 l-3.14 0 l0 4.14 l3.96 0 c0.42 0 0.64 0.34 0.64 0.66 c0 0.34 -0.22 0.66 -0.64 0.66 l-4.6 0 c-0.34 0 -0.7 -0.12 -0.7 -0.7 z M73.24000000000001 7.800000000000001 l2.62 9.02 l2.74 -8.98 c0.26 -0.86 1.48 -0.52 1.24 0.32 l-3.2 10.68 c-0.1 0.36 -0.42 0.56 -0.76 0.56 s-0.7 -0.2 -0.8 -0.56 l-3.06 -10.66 c-0.26 -0.9 1 -1.16 1.22 -0.38 z M84.16000000000001 18.7 l0 -10.64 c0 -0.46 0.36 -0.7 0.7 -0.7 l4.6 0 c0.44 0 0.66 0.32 0.66 0.66 s-0.22 0.68 -0.66 0.68 l-3.96 0 l0 3.88 l3.14 0 c0.46 0 0.68 0.32 0.68 0.66 s-0.24 0.7 -0.68 0.7 l-3.14 0 l0 4.14 l3.96 0 c0.42 0 0.64 0.34 0.64 0.66 c0 0.34 -0.22 0.66 -0.64 0.66 l-4.6 0 c-0.34 0 -0.7 -0.12 -0.7 -0.7 z M94.72000000000001 18.76 l0 -10.76 c0 -0.42 0.32 -0.64 0.64 -0.64 s0.66 0.22 0.66 0.64 l0 10.06 l3.98 0 c0.44 0 0.68 0.34 0.68 0.68 s-0.24 0.66 -0.68 0.66 l-4.62 0 c-0.4 0 -0.66 -0.32 -0.66 -0.64 z M104.44000000000001 15.86 l0 -4.96 c0 -2.4 1.24 -3.68 3.64 -3.68 l0.52 0 c2.38 0 3.64 1.28 3.64 3.68 l0 4.96 c0 2.2 -1.46 3.64 -3.64 3.64 l-0.52 0 c-2.22 0 -3.64 -1.46 -3.64 -3.64 z M108.08000000000001 18.16 l0.52 0 c1.44 0 2.3 -0.9 2.3 -2.3 l0 -4.96 c0 -1.56 -0.76 -2.36 -2.3 -2.36 l-0.52 0 c-1.52 0 -2.36 0.82 -2.36 2.36 l0 4.96 c0 1.46 0.92 2.3 2.36 2.3 z M123.58000000000001 10.28 l0 2.5 c0 2.38 -1.24 3.14 -3.34 3.14 l-1.86 0 l0 2.84 c0 0.42 -0.34 0.64 -0.66 0.64 c-0.34 0 -0.66 -0.22 -0.66 -0.64 l0 -10.74 c0 -0.38 0.32 -0.66 0.66 -0.66 l2.7 0 c1.1 0 3.16 0.22 3.16 2.92 z M120.42000000000002 8.7 l-2.04 0 l0 5.86 l1.86 0 c0.98 0 2.04 -0.24 2.02 -1.8 l-0.02 -2.48 c0 -0.48 -0.08 -1.58 -1.82 -1.58 z M127.68 18.7 l0 -10.64 c0 -0.46 0.36 -0.7 0.7 -0.7 l4.6 0 c0.44 0 0.66 0.32 0.66 0.66 s-0.22 0.68 -0.66 0.68 l-3.96 0 l0 3.88 l3.14 0 c0.46 0 0.68 0.32 0.68 0.66 s-0.24 0.7 -0.68 0.7 l-3.14 0 l0 4.14 l3.96 0 c0.42 0 0.64 0.34 0.64 0.66 c0 0.34 -0.22 0.66 -0.64 0.66 l-4.6 0 c-0.34 0 -0.7 -0.12 -0.7 -0.7 z M139.58 15.9 l0 2.86 c0 0.44 -0.34 0.64 -0.66 0.64 c-0.34 0 -0.66 -0.2 -0.66 -0.64 l0 -10.74 c0 -0.4 0.22 -0.66 0.66 -0.66 l2.7 0 c0.76 0 3.16 0.22 3.16 2.92 l0 2.5 c0 1.52 -0.56 2.48 -1.84 2.9 l1.36 2.74 c0.28 0.54 -0.14 0.98 -0.58 0.98 c-0.24 0 -0.54 -0.16 -0.7 -0.5 l-1.46 -3 l-1.98 0 z M143.46 12.780000000000001 l0 -2.5 c0 -0.48 -0.18 -1.58 -1.84 -1.58 l-2.04 0 l0 5.86 l1.86 0 c0.98 0 2.02 -0.22 2.02 -1.78 z"/></g>
			</g>
		</svg>
	